<svg id="Layer_1" data-name="Layer 1" xmlns="http://www.w3.org/2000/svg" viewBox="0 0 1408 412"><defs><style>.cls-1{fill:#4d4d4d;}.cls-2{fill:#d55a3a;}.cls-3{fill:#fff;}</style></defs><title>wellscan-logo</title><path class="cls-1" d="M312.45,191.83l-10.1-3.37c0-2.1,1-7.78,2.32-9.88h46.92c0,2.31-1.06,7.78-2.32,9.88l-9,3.16,19.36,51.76H360l23.36-65.65,17.25-2.1,24.83,67.75h.42l20.41-51.55L437,188.46a30.47,30.47,0,0,1,2.31-9.88H473.2a27,27,0,0,1-2.32,9.88l-9.46,3.37-33.67,85-15.15,2.11-25.67-69.65-24.82,67.54-15.36,2.11Z"/><path class="cls-1" d="M504.13,227.6V228c0,22.93,12.84,37.66,33.46,37.66,9.68,0,19.78-4,29.24-13a7.18,7.18,0,0,1,5.26,6.94c0,8.84-16.62,20.41-40.18,20.41-36.61,0-55.76-24.41-55.76-53,0-26.93,19.15-51.55,51.55-51.55,24.83,0,46.5,16.2,46.5,44.82a41.75,41.75,0,0,1-.63,7.36Zm.84-12h43.56c1.89-17.26-8-27.36-19.78-27.36C514.23,188.25,507.08,199.41,505,215.61Z"/><path class="cls-1" d="M589.77,267l11.36-3.37a114.31,114.31,0,0,1-1.68-21.46V149.75c0-11.57-3.58-14.94-13.47-15.36a35,35,0,0,1,1.48-9.89l36.61-3.36c2.1,5.89,2.94,13,2.94,20.19V251.8c0,10.73,3.79,13.67,14.94,14.09,1.26,8-5.68,10.94-14.1,10.94h-40A25.58,25.58,0,0,1,589.77,267Z"/><path class="cls-1" d="M654.37,267l11.36-3.37A113.55,113.55,0,0,1,664,242.12V149.75c0-11.57-3.57-14.94-13.46-15.36a35.34,35.34,0,0,1,1.47-9.89l36.61-3.36c2.1,5.89,3,13,3,20.19V251.8c0,10.73,3.78,13.67,14.93,14.09,1.27,8-5.68,10.94-14.09,10.94h-40A25.43,25.43,0,0,1,654.37,267Z"/><path class="cls-2" d="M781.66,279.36a114.36,114.36,0,0,1-37.56-6.14,90.87,90.87,0,0,1-31.45-18.42l22.72-27.2q22.1,17.67,47.76,17.67,8.21,0,12.52-2.62a8.28,8.28,0,0,0,4.32-7.46v-.42a8,8,0,0,0-1.05-4.1,10.85,10.85,0,0,0-3.9-3.46,40,40,0,0,0-7.57-3.25,125.52,125.52,0,0,0-12.31-3.26q-11.79-2.73-21.88-6a66.78,66.78,0,0,1-17.57-8.4A38.16,38.16,0,0,1,723.9,193.5q-4.3-7.67-4.31-19v-.42a45.42,45.42,0,0,1,3.89-18.9,42.09,42.09,0,0,1,11.36-14.92,53.54,53.54,0,0,1,18-9.76A75.86,75.86,0,0,1,776.61,127q18.95,0,33.77,5a85.3,85.3,0,0,1,26.83,14.71L816.8,175.63a82.76,82.76,0,0,0-20.73-10.84,62.62,62.62,0,0,0-20.51-3.68q-7.37,0-11,2.73a8.13,8.13,0,0,0-3.68,6.72V171a8.2,8.2,0,0,0,1.16,4.41,10.46,10.46,0,0,0,4,3.47,43.88,43.88,0,0,0,7.78,3.15q5,1.58,12.52,3.25a179.77,179.77,0,0,1,22.83,6.41,68.07,68.07,0,0,1,17.36,8.93,35.65,35.65,0,0,1,10.94,12.7,38.7,38.7,0,0,1,3.79,17.75v.42a45.23,45.23,0,0,1-4.32,20.16,43.23,43.23,0,0,1-12.09,15,54.77,54.77,0,0,1-18.73,9.45A85.48,85.48,0,0,1,781.66,279.36Z"/><path class="cls-2" d="M923.69,279.78A77.56,77.56,0,0,1,894,274.1a72.35,72.35,0,0,1-24.09-15.89,76.53,76.53,0,0,1-22.2-54.6v-.42a76.84,76.84,0,0,1,22.09-54.39,74,74,0,0,1,24.51-16.31,80.39,80.39,0,0,1,31-5.89A89.06,89.06,0,0,1,946,128.81a70.65,70.65,0,0,1,16.94,6.31,67.91,67.91,0,0,1,13.89,9.79,80.58,80.58,0,0,1,11,12.41L957.14,181.1a53.18,53.18,0,0,0-13.88-12.63q-7.57-4.62-18.31-4.63a32.67,32.67,0,0,0-14.2,3,34,34,0,0,0-11,8.32,38.64,38.64,0,0,0-7.26,12.41,43.64,43.64,0,0,0-2.63,15.15v.42a45.16,45.16,0,0,0,2.63,15.47,38.39,38.39,0,0,0,7.26,12.51,34,34,0,0,0,11,8.32,32.67,32.67,0,0,0,14.2,3,40,40,0,0,0,10.42-1.27,31.54,31.54,0,0,0,8.62-3.68,46.48,46.48,0,0,0,7.37-5.68,84.17,84.17,0,0,0,6.83-7.26l30.73,21.89a110.62,110.62,0,0,1-11.47,13.25,65.77,65.77,0,0,1-14.1,10.52,73.3,73.3,0,0,1-17.68,6.94A87.74,87.74,0,0,1,923.69,279.78Z"/><path class="cls-2" d="M1052.67,128.49H1092l62.71,148.34H1111l-10.73-26.3h-56.81l-10.52,26.3H990ZM1088.44,219,1072,177.1,1055.4,219Z"/><path class="cls-2" d="M1165.24,129.55h38.16l60.73,77.85V129.55h40.19V276.83h-35.85l-63-80.79v80.79h-40.19Z"/><circle class="cls-2" cx="181.84" cy="213.82" r="92.77"/><g id="QcX7yC.tif"><path class="cls-3" d="M190.45,172.14a18.48,18.48,0,0,1-3.2.63c-3,.06-3.91-2.81-2.78-4.77,1.36-2.36,1.09-3.12-1.67-3.68-1-.2-1.9-.4-2.85-.57-4-.75-6.14-4.77-4-8.43,1.73-3,4.15-5.13,7.67-5.54a16.81,16.81,0,0,1,4.63.31c2.74.46,5.45,1.08,8.18,1.64a5.64,5.64,0,0,0,.63,0c-.14-1.25-.3-2.45-.41-3.64-.21-2.26,1-3.36,2.79-3.38a3.24,3.24,0,0,1,2,.82,23.11,23.11,0,0,1,5.54,7.33,15.9,15.9,0,0,0,2.62,3.92c.93,1,2.39,1.13,3.75,1.21a6.42,6.42,0,0,1,4.84,2.1,5.31,5.31,0,0,1,.91,5.56c-1.07,2.79-2.41,5.47-3.63,8.2a4,4,0,0,0-.39.85,2.62,2.62,0,0,0,.15.81,2,2,0,0,0,.66-.32c1.29-1.3,2.54-2.66,3.86-3.94a11.19,11.19,0,0,1,8.35-3.14,22,22,0,0,1,4.72.6c2.57.65,3.87,2.77,4.94,5a18.55,18.55,0,0,1,1.78,8.34c0,1.56-.43,1.82-1.87,1.2a7.89,7.89,0,0,0-2.4-.57,7.43,7.43,0,0,1,0,5,4.36,4.36,0,0,1-4,3.67,5,5,0,0,1-4.87-3.42c-.44-1.49-.69-3-1.09-4.53a5.81,5.81,0,0,0-2.31-3.17l-.55-.12c.07.28.25.57.21.82a35.4,35.4,0,0,1-.85,4.12,4.11,4.11,0,0,1-1.22,1.83,2.67,2.67,0,0,1-3.74-.06c-.27-.22-.51-.45-.86-.76-.53.43-1.11.83-1.62,1.31-2.42,2.24-4.81,4.52-7.26,6.74-.51.48-.49.7,0,1.16a23.58,23.58,0,0,1,4.64,5.22,12.15,12.15,0,0,1,1.45,8.49A29.55,29.55,0,0,1,209.5,218a53.59,53.59,0,0,1-3.18,4.38c-3.66,5.32-8.59,9.54-12.54,14.6a32.26,32.26,0,0,1-7.67,6.71,20.57,20.57,0,0,0-3.18,3.15,32.28,32.28,0,0,1-6.62,5.89c-1.52.94-3.15,1.7-4.63,2.7-2.27,1.53-4.5,3.15-6.66,4.83a47.59,47.59,0,0,1-8.59,5.2,93.3,93.3,0,0,1-20.82,7.37,22.46,22.46,0,0,1-4.24.46,2.35,2.35,0,0,1-2.32-2,2.3,2.3,0,0,1,1.15-2.63,79.88,79.88,0,0,0,20.31-20.6,49.5,49.5,0,0,1,6.22-7.93c2.44-2.36,3.72-5.39,5.08-8.44,2.48-5.58,5.12-11.1,7.83-16.59a88.12,88.12,0,0,1,7.74-12.47A60.9,60.9,0,0,1,188,191.05a7.56,7.56,0,0,1,7.79-1.12c1.32.47,2.69.78,4.05,1.13a2.15,2.15,0,0,0,3-2c.26-2.13.51-4.27.61-6.42s-.79-3.37-2.94-3.77-4.45-.62-6.68-.94a7.9,7.9,0,0,1-1.73-.4,3.43,3.43,0,0,1-2-4.83C190.28,172.46,190.41,172.22,190.45,172.14Zm20.26.77.27,0c.28-.94.62-1.87.84-2.82a8.24,8.24,0,0,0-7.07-9.86,19.42,19.42,0,0,0-10,1.66,2.55,2.55,0,0,0-1.75,2.61c-.06,2.3-.25,4.59-1.62,6.39a43.77,43.77,0,0,1,4.46-.27,46,46,0,0,1,4.62.61c-.3-.44-.54-.81-.8-1.18-1.14-1.61-.65-3.74,1.07-4.14,3.23-.76,6.38.21,8.11,3.43C209.46,170.55,210.08,171.74,210.71,172.91Z"/></g></svg>